<?xml version="1.0" encoding="UTF-8" standalone="no" ?>
<!DOCTYPE svg PUBLIC "-//W3C//DTD SVG 1.1//EN" "http://www.w3.org/Graphics/SVG/1.1/DTD/svg11.dtd">
<svg xmlns="http://www.w3.org/2000/svg" xmlns:xlink="http://www.w3.org/1999/xlink" version="1.1" width="90" height="90" viewBox="0 0 500 500" xml:space="preserve">
<desc>Created with Fabric.js 5.3.0</desc>
<defs>
</defs>
<g transform="matrix(1 0 0 1 250 263.6171464496)" id="MVzBZOyO3fz-J9WMnc301"  >
<g style="" vector-effect="non-scaling-stroke"   >
		<g transform="matrix(2.5784449756 0 0 2.5784449756 0 0)" id="FWjLGuV1ApPqmP27Y6nN_"  >
<linearGradient id="SVGID_375" gradientUnits="userSpaceOnUse" gradientTransform="matrix(1 0 0 1 0 0.085)"  x1="0" y1="39.914500000000004" x2="80" y2="39.914500000000004">
<stop offset="0%" style="stop-color:#00C100;stop-opacity: 1"/>
<stop offset="50%" style="stop-color:#7e7e7e;stop-opacity: 1"/>
<stop offset="79.75042814960622%" style="stop-color:#31A8F7;stop-opacity: 1"/>
<stop offset="100%" style="stop-color:#000000;stop-opacity: 1"/>
</linearGradient>
<path style="stroke: none; stroke-width: 1; stroke-dasharray: none; stroke-linecap: butt; stroke-dashoffset: 0; stroke-linejoin: miter; stroke-miterlimit: 4; fill: url(#SVGID_375); fill-rule: nonzero; opacity: 1;" vector-effect="non-scaling-stroke"  transform=" translate(-40, -39.9995)" d="M 64.002 38.692 L 41.308 38.692 L 41.308 25.094 C 48.602 24.901 54.766 23.12 59.564 21.027 C 62.337 26.437 63.823 32.342 64.002 38.692 z M 41.308 2.16 L 41.308 22.477 C 47.964 22.293 53.663 20.721 58.288 18.721 C 56.525999999999996 15.769 54.363 12.974 51.797999999999995 10.345 C 47.724 6.17 43.608 3.488 41.308 2.16 z M 38.692 38.692 L 38.692 25.094 C 31.398 24.901 25.234 23.12 20.436 21.027 C 17.663 26.437 16.177 32.342 15.998000000000001 38.693 L 38.692 38.693 z M 28.202 10.345 C 25.635 12.975000000000001 23.470000000000002 15.772 21.708000000000002 18.727 C 26.195 20.656 31.929000000000002 22.287 38.69200000000001 22.476 L 38.69200000000001 2.16 C 36.392 3.488 32.276 6.17 28.202 10.345 z M 66.62 41.308 C 66.452 47.484 65.08800000000001 53.351 62.55800000000001 58.763 C 62.35300000000001 59.202999999999996 62.13700000000001 59.638999999999996 61.916000000000004 60.073 C 63.132000000000005 60.682 64.23700000000001 61.297 65.22500000000001 61.892 C 67.44500000000001 63.229000000000006 69.266 64.562 70.676 65.706 C 76.248 59.063 79.702 50.585 80 41.309000000000005 L 66.62 41.309000000000005 z M 13.38 38.692 C 13.549000000000001 32.516 14.913 26.649 17.442 21.237000000000002 C 17.648 20.797 17.863 20.361 18.084 19.927000000000003 C 16.868 19.318000000000005 15.763 18.703000000000003 14.774999999999999 18.108000000000004 C 12.554999999999998 16.771000000000004 10.733999999999998 15.438000000000004 9.323999999999998 14.294000000000004 C 3.752 20.938 0.298 29.416 0 38.692 L 13.38 38.692 z M 38.692 41.308 L 15.998 41.308 C 16.177 47.658 17.663 53.563 20.436 58.973 C 25.234 56.879999999999995 31.399 55.099 38.692 54.906 L 38.692 41.308 z M 18.084 60.073 C 17.863 59.639 17.647 59.203 17.442 58.763 C 14.912 53.349999999999994 13.548 47.483999999999995 13.379999999999999 41.308 L 0 41.308 C 0.298 50.584 3.752 59.062 9.324 65.705 C 10.734 64.56099999999999 12.555 63.228 14.774999999999999 61.891 C 15.763 61.297 16.868 60.681 18.084 60.073 z M 26.4 71.554 C 23.624 68.721 21.262999999999998 65.646 19.346999999999998 62.38 C 15.804999999999998 64.151 13.026999999999997 66.099 11.077999999999998 67.665 C 17.726999999999997 74.614 26.854999999999997 79.17 37.041 79.914 C 34.56 78.456 30.496 75.735 26.4 71.554 z M 16.212 15.92 C 17.146 16.479 18.19 17.059 19.34 17.631 C 21.257 14.361 23.621 11.283000000000001 26.4 8.446 C 30.496 4.266 34.56 1.5439999999999996 37.041 0.0860000000000003 C 26.853 0.83 17.723 5.388 11.074 12.34 C 12.408 13.416 14.129 14.671 16.212 15.92 z M 63.788 64.08 C 62.854 63.521 61.809999999999995 62.940999999999995 60.66 62.369 C 58.742999999999995 65.639 56.379 68.717 53.599999999999994 71.554 C 49.50399999999999 75.73400000000001 45.44 78.456 42.958999999999996 79.914 C 53.147999999999996 79.169 62.27799999999999 74.611 68.92699999999999 67.66 C 67.592 66.584 65.871 65.329 63.788 64.08 z M 53.6 8.446 C 56.376000000000005 11.279 58.737 14.354 60.653 17.619999999999997 C 64.195 15.848999999999997 66.973 13.900999999999998 68.92099999999999 12.334999999999997 C 62.273 5.386 53.145 0.83 42.959 0.085 C 45.44 1.544 49.504 4.266 53.6 8.446 z M 41.308 41.308 L 41.308 54.906 C 48.602 55.099 54.766 56.879999999999995 59.564 58.973 C 62.337 53.563 63.823 47.658 64.002 41.308 L 41.308 41.308 z M 51.798 69.655 C 54.365 67.025 56.53 64.22800000000001 58.292 61.273 C 53.805 59.344 48.071 57.713 41.308 57.524 L 41.308 77.84 C 43.608 76.512 47.724 73.83 51.798 69.655 z M 65.224 18.108 C 64.236 18.703 63.131 19.318 61.915000000000006 19.927 C 62.136 20.361 62.352000000000004 20.797 62.55700000000001 21.237 C 65.087 26.65 66.45100000000001 32.516 66.61900000000001 38.69199999999999 L 80 38.69199999999999 C 79.702 29.415999999999993 76.248 20.93799999999999 70.676 14.294999999999995 C 69.266 15.438 67.445 16.771 65.224 18.108 z M 38.692 77.84 L 38.692 57.523 C 32.036 57.707 26.337 59.279 21.712 61.279 C 23.474 64.23100000000001 25.637 67.02600000000001 28.201999999999998 69.655 C 32.276 73.83 36.392 76.512 38.692 77.84 z" stroke-linecap="round" />
</g>
		<g transform="matrix(1.3971944336 0 0 1.3971944336 0.7855229468 3.8087520259)" id="a1k06Oh4gHrZAroD6oHho"  >
<g style="" vector-effect="non-scaling-stroke"   >
		<g transform="matrix(1 0 0 1 -0.05 7.2)" id="Mtnz53BChjvRut1Yd7YrJ"  >
<path style="stroke: none; stroke-width: 1; stroke-dasharray: none; stroke-linecap: butt; stroke-dashoffset: 0; stroke-linejoin: miter; stroke-miterlimit: 4; fill: rgb(255,255,255); fill-rule: nonzero; opacity: 1;" vector-effect="non-scaling-stroke"  transform=" translate(-39.95, -47.3)" d="M 28.3 24.1 L 51.6 24.1 C 50.9 29.1 46.6 33 41.400000000000006 33 C 40.900000000000006 33 40.400000000000006 34 40.00000000000001 34 C 39.60000000000001 34 39.20000000000001 33 38.60000000000001 33 C 33.3 33 29 29.1 28.3 24.1 z M 36.4 67.2 L 31.5 70.5 L 48.4 70.5 L 43.5 67.2 C 41.3 65.8 38.6 65.8 36.4 67.2 z" stroke-linecap="round" />
</g>
		<g transform="matrix(1 0 0 1 -0.0813231103 7.2452233412)" id="5zOrNNzubbbG7032ocInO"  >
<path style="stroke: none; stroke-width: 1; stroke-dasharray: none; stroke-linecap: butt; stroke-dashoffset: 0; stroke-linejoin: miter; stroke-miterlimit: 4; fill: rgb(179,181,179); fill-rule: nonzero; opacity: 1;" vector-effect="non-scaling-stroke"  transform=" translate(-39.9186768897, -47.3452233412)" d="M 38.5 43 L 38.5 41.1 C 38.5 40.300000000000004 39.1 39.7 39.9 39.7 C 40.699999999999996 39.7 41.3 40.300000000000004 41.3 41.1 L 41.3 43 C 41.3 43.8 40.699999999999996 44.4 39.9 44.4 C 39.1 44.4 38.5 43.8 38.5 43 z M 38.5 49.7 C 38.5 50.5 39.1 51.1 39.9 51.1 C 40.699999999999996 51.1 41.3 50.5 41.3 49.7 L 41.3 47.800000000000004 C 41.3 47.00000000000001 40.699999999999996 46.400000000000006 39.9 46.400000000000006 C 39.1 46.400000000000006 38.5 47.00000000000001 38.5 47.800000000000004 L 38.5 49.7 z M 38.5 56.5 C 38.5 57.3 39.1 57.9 39.9 57.9 C 40.699999999999996 57.9 41.3 57.3 41.3 56.5 L 41.3 54.6 C 41.3 53.800000000000004 40.699999999999996 53.2 39.9 53.2 C 39.1 53.2 38.5 53.800000000000004 38.5 54.6 L 38.5 56.5 z M 54.6 22.7 C 54.6 29.7 49.1 35.5 42.2 35.9 C 40.7 38.699999999999996 39.300000000000004 38.6 37.800000000000004 35.9 C 30.900000000000006 35.5 25.300000000000004 29.7 25.300000000000004 22.7 C 25.300000000000004 21.9 25.900000000000006 21.3 26.700000000000003 21.3 L 53.1 21.3 C 54 21.2 54.6 21.9 54.6 22.7 z M 51.6 24.1 L 28.3 24.1 C 29 29.1 33.3 33 38.5 33 C 39.1 33 39.5 34 39.9 34 C 40.3 34 40.8 33 41.3 33 C 46.6 33 50.9 29.1 51.6 24.1 z M 54.5 72.4 C 54.3 73 53.8 73.4 53.1 73.4 L 26.7 73.4 C 26.099999999999998 73.4 25.5 73 25.3 72.4 C 25.1 71.80000000000001 25.400000000000002 71.10000000000001 25.900000000000002 70.80000000000001 L 34.800000000000004 64.9 C 35.900000000000006 64.10000000000001 37.2 63.7 38.50000000000001 63.50000000000001 L 38.50000000000001 61.400000000000006 C 38.50000000000001 60.60000000000001 39.10000000000001 60.00000000000001 39.900000000000006 60.00000000000001 C 40.7 60.00000000000001 41.300000000000004 60.60000000000001 41.300000000000004 61.400000000000006 L 41.300000000000004 63.50000000000001 C 42.6 63.70000000000001 43.900000000000006 64.2 45.00000000000001 64.9 L 53.900000000000006 70.80000000000001 C 54.5 71.1 54.7 71.7 54.5 72.4 z M 48.4 70.5 L 43.5 67.2 C 41.3 65.8 38.6 65.8 36.4 67.2 L 31.5 70.5 L 48.4 70.5 z" stroke-linecap="round" />
</g>
		<g transform="matrix(1 0 0 1 0 0)" id="fHQPf2_hey6oZy8q3gXe1"  >
<path style="stroke: none; stroke-width: 1; stroke-dasharray: none; stroke-linecap: butt; stroke-dashoffset: 0; stroke-linejoin: miter; stroke-miterlimit: 4; fill: rgb(179,181,179); fill-rule: nonzero; opacity: 1;" vector-effect="non-scaling-stroke"  transform=" translate(-40, -40.1)" d="M 61.1 21.3 L 61.1 1.7 C 61.1 0.7999999999999999 60.300000000000004 0 59.4 0 L 20.6 0 C 19.700000000000003 0 18.900000000000002 0.8 18.900000000000002 1.7 L 18.900000000000002 21.4 C 18.900000000000002 29.5 23.400000000000002 36.599999999999994 30.400000000000002 40.099999999999994 C 23.5 43.599999999999994 18.900000000000002 50.699999999999996 18.900000000000002 58.8 L 18.900000000000002 78.5 C 18.900000000000002 79.4 19.700000000000003 80.2 20.6 80.2 L 59.4 80.2 C 60.3 80.2 61.1 79.4 61.1 78.5 L 61.1 58.7 C 61.1 50.6 56.6 43.5 49.6 40 C 56.6 36.5 61.1 29.4 61.1 21.3 z M 44.3 38.4 C 43.6 38.5 43 39.2 43 40 C 43 40.8 43.5 41.5 44.3 41.6 C 52.199999999999996 43.5 57.699999999999996 50.5 57.699999999999996 58.6 L 57.699999999999996 76.6 L 22.3 76.6 L 22.3 58.599999999999994 C 22.3 50.49999999999999 27.8 43.49999999999999 35.7 41.599999999999994 C 36.5 41.39999999999999 37 40.699999999999996 37 39.99999999999999 C 37 39.199999999999996 36.5 38.49999999999999 35.7 38.39999999999999 C 27.800000000000004 36.49999999999999 22.300000000000004 29.499999999999993 22.300000000000004 21.39999999999999 L 22.300000000000004 3.3999999999999915 L 57.800000000000004 3.3999999999999915 L 57.800000000000004 21.39999999999999 C 57.7 29.5 52.2 36.5 44.3 38.4 z" stroke-linecap="round" />
</g>
</g>
</g>
</g>
</g>
</svg>